<svg width="70" height="70" viewBox="0 0 70 70" fill="none" xmlns="http://www.w3.org/2000/svg">
<rect width="70" height="70" rx="35" fill="#00B265"/>
<path d="M24.8002 50.9129C21.6529 49.4412 19.2332 47.3412 17.541 44.6128C15.8433 41.8788 15 38.6764 15 35.0055C15 31.3345 15.7992 28.1376 17.3977 25.4258C18.9961 22.7139 21.2615 20.6083 24.1994 19.1256C27.1372 17.6374 30.5877 16.8933 34.5453 16.8933C37.3894 16.8933 39.9966 17.3728 42.3777 18.3319C44.7589 19.291 46.7707 20.658 48.4133 22.4273C50.0558 24.2021 51.2133 26.2691 51.8858 28.6337L46.4235 30.166C45.7841 27.6085 44.4006 25.5911 42.2785 24.1029C40.1564 22.6202 37.5934 21.8761 34.5894 21.8761C31.8444 21.8761 29.4412 22.4107 27.3798 23.4801C25.3183 24.5494 23.7364 26.0762 22.634 28.0549C21.5316 30.0337 20.9804 32.3487 20.9804 35C20.9804 37.6512 21.5867 39.9662 22.7994 41.945C24.012 43.9238 25.7372 45.4506 27.9751 46.5199C30.2129 47.5892 32.8311 48.1238 35.8351 48.1238C39.3186 48.1238 42.2895 47.264 44.7478 45.5388C47.2061 43.8135 48.755 41.4985 49.3944 38.5937L55 39.9331C54.3937 42.5844 53.2031 44.9104 51.4283 46.9057C49.6534 48.901 47.4266 50.4333 44.7423 51.5027C42.058 52.572 39.0706 53.1066 35.7854 53.1066C31.6019 53.1066 27.9365 52.3735 24.7892 50.9019L24.8002 50.9129Z" fill="white"/>
</svg>
