<svg width="360" height="89" viewBox="0 0 360 89" fill="none" xmlns="http://www.w3.org/2000/svg">
<g clip-path="url(#clip0_56_5204)">
<path d="M12.8584 45.0118C8.72898 43.0809 5.55415 40.3255 3.33394 36.7457C1.10649 33.1586 0 28.9568 0 24.1403C0 19.3238 1.04863 15.1293 3.1459 11.5712C5.24317 8.01305 8.21551 5.25044 12.0702 3.30504C15.9248 1.35241 20.452 0.376099 25.6445 0.376099C29.3762 0.376099 32.797 1.00528 35.9212 2.26364C39.0454 3.522 41.685 5.31553 43.8402 7.63699C45.9953 9.96568 47.514 12.6777 48.3963 15.7802L41.2294 17.7907C40.3905 14.435 38.5753 11.7881 35.791 9.83551C33.0067 7.89011 29.6438 6.9138 25.7024 6.9138C22.1009 6.9138 18.9477 7.6153 16.243 9.0183C13.5382 10.4213 11.4627 12.4246 10.0163 15.0208C8.56988 17.6171 7.84668 20.6545 7.84668 24.1331C7.84668 27.6117 8.6422 30.6491 10.2332 33.2454C11.8243 35.8417 14.0879 37.8449 17.024 39.2479C19.9602 40.6509 23.3954 41.3524 27.3368 41.3524C31.9074 41.3524 35.8055 40.2242 39.0309 37.9606C42.2564 35.697 44.2886 32.6596 45.1275 28.8483L52.4824 30.6057C51.6869 34.0843 50.1247 37.1362 47.7961 39.7542C45.4674 42.3721 42.5457 44.3826 39.0237 45.7856C35.5017 47.1886 31.582 47.8901 27.2717 47.8901C21.7827 47.8901 16.9734 46.9283 12.844 44.9973L12.8584 45.0118Z" fill="#00B265"/>
<path d="M59.0274 45.0118C56.4311 43.2905 55.1294 40.9691 55.1294 38.0329C55.1294 35.0967 56.5758 32.7536 59.4686 30.866C62.3614 28.9785 66.527 27.7852 71.9799 27.2862L83.0448 26.346C83.9271 26.2593 84.6069 26.0134 85.0914 25.5939C85.576 25.1745 85.8146 24.6321 85.8146 23.9595C85.8146 23.0772 85.3662 22.2383 84.4622 21.4428C83.5583 20.6473 82.2999 20.0181 80.6872 19.5552C79.0744 19.0924 77.2809 18.861 75.3138 18.861C72.0884 18.861 69.0799 19.5191 66.2955 20.8425C63.5112 22.166 61.5875 23.7425 60.5461 25.5867L55.7658 22.3178C56.6047 20.64 57.986 19.1141 59.917 17.7255C61.8407 16.3442 64.1621 15.245 66.8596 14.4278C69.5644 13.6106 72.3993 13.2056 75.3789 13.2056C78.6477 13.2056 81.5912 13.6756 84.2091 14.623C86.8271 15.5632 88.9027 16.9373 90.4286 18.738C91.9546 20.5388 92.7212 22.636 92.7212 25.0226V46.3931H86.5595L85.6772 40.6075H85.6121C84.144 42.7481 82.0106 44.4404 79.1974 45.6988C76.3914 46.9571 73.1804 47.5863 69.5789 47.5863C65.1384 47.5863 61.6165 46.7257 59.0202 45.0118H59.0274ZM78.5465 40.7666C80.745 39.906 82.4735 38.7272 83.7318 37.2157C84.9902 35.7042 85.6194 34.0336 85.6194 32.1895V31.0613L72.92 32.1895C65.7965 32.8187 62.2312 34.5543 62.2312 37.4037C62.2312 38.8718 63.0195 40.0145 64.5888 40.8317C66.1581 41.6489 68.3711 42.0611 71.2205 42.0611C73.9036 42.0611 76.3407 41.6344 78.5465 40.7738V40.7666Z" fill="#00B265"/>
<path d="M123.493 16.1562C125.525 18.1233 126.69 20.8281 126.979 24.2632L120.817 26.0206C120.608 23.8438 119.892 22.1226 118.677 20.8642C117.462 19.6059 115.928 18.9767 114.084 18.9767C111.192 18.9767 108.942 20.0687 107.33 22.2455C105.717 24.4223 104.907 27.4598 104.907 31.3578V46.3786H97.863V14.4567H103.837L104.719 20.1772H104.784C105.833 18.0004 107.308 16.2936 109.217 15.0569C111.126 13.8203 113.274 13.2056 115.661 13.2056C118.843 13.2056 121.454 14.1891 123.486 16.1562H123.493Z" fill="#00B265"/>
<path d="M131.629 7.73097C130.79 6.89206 130.371 5.80727 130.371 4.46212C130.371 3.11698 130.79 2.03941 131.629 1.2222C132.468 0.40499 133.574 0 134.963 0C136.351 0 137.53 0.40499 138.391 1.2222C139.251 2.03941 139.678 3.11698 139.678 4.46212C139.678 5.80727 139.251 6.89206 138.391 7.73097C137.53 8.56988 136.388 8.98933 134.963 8.98933C133.538 8.98933 132.468 8.56988 131.629 7.73097ZM131.441 14.4567H138.485V46.3931H131.441V14.4567Z" fill="#00B265"/>
<path d="M157.628 45.6409C154.967 44.3392 152.963 42.5818 151.625 40.3616H151.56L150.678 46.3931H144.704V0H151.748V20.4303H151.813C153.195 18.2101 155.198 16.46 157.816 15.1799C160.434 13.8998 163.377 13.2634 166.646 13.2634C170.334 13.2634 173.596 13.9866 176.424 15.433C179.251 16.8794 181.45 18.9044 183.027 21.5006C184.596 24.0969 185.384 27.0765 185.384 30.4249C185.384 33.7733 184.589 36.7528 182.998 39.3491C181.407 41.9454 179.194 43.9703 176.366 45.4167C173.538 46.8631 170.277 47.5863 166.588 47.5863C163.276 47.5863 160.289 46.9355 157.628 45.6409ZM171.897 40.2025C173.929 39.2623 175.513 37.9389 176.641 36.2394C177.769 34.5399 178.34 32.6017 178.34 30.4249C178.34 28.2481 177.776 26.3099 176.641 24.6104C175.513 22.9109 173.929 21.5946 171.897 20.6473C169.864 19.7071 167.528 19.2298 164.889 19.2298C162.249 19.2298 159.978 19.6999 157.946 20.6473C155.914 21.5874 154.33 22.9181 153.202 24.6393C152.074 26.3605 151.502 28.2842 151.502 30.4249C151.502 32.5655 152.066 34.4892 153.202 36.2104C154.33 37.9317 155.914 39.2623 157.946 40.2025C159.978 41.1427 162.292 41.62 164.889 41.62C167.485 41.62 169.864 41.1499 171.897 40.2025Z" fill="#00B265"/>
<path d="M202.821 45.6409C200.159 44.3392 198.156 42.5818 196.818 40.3616H196.753L195.871 46.3931H189.897V0H196.941V20.4303H197.006C198.387 18.2101 200.391 16.46 203.009 15.1799C205.627 13.8998 208.57 13.2634 211.839 13.2634C215.527 13.2634 218.789 13.9866 221.616 15.433C224.444 16.8794 226.65 18.9044 228.219 21.5006C229.789 24.0969 230.577 27.0765 230.577 30.4249C230.577 33.7733 229.781 36.7528 228.19 39.3491C226.599 41.9454 224.386 43.9703 221.559 45.4167C218.731 46.8631 215.469 47.5863 211.781 47.5863C208.469 47.5863 205.482 46.9355 202.821 45.6409ZM217.089 40.2025C219.121 39.2623 220.705 37.9389 221.833 36.2394C222.962 34.5399 223.533 32.6017 223.533 30.4249C223.533 28.2481 222.969 26.3099 221.833 24.6104C220.705 22.9109 219.121 21.5946 217.089 20.6473C215.057 19.7071 212.721 19.2298 210.081 19.2298C207.442 19.2298 205.171 19.6999 203.139 20.6473C201.107 21.5874 199.523 22.9181 198.395 24.6393C197.266 26.3605 196.695 28.2842 196.695 30.4249C196.695 32.5655 197.259 34.4892 198.395 36.2104C199.53 37.9317 201.107 39.2623 203.139 40.2025C205.171 41.1427 207.485 41.62 210.081 41.62C212.678 41.62 215.057 41.1499 217.089 40.2025Z" fill="#00B265"/>
<path d="M244.498 45.3878C241.251 43.8764 238.706 41.7863 236.861 39.1033C235.017 36.4202 234.092 33.4045 234.092 30.0488C234.092 26.6932 234.938 23.9306 236.637 21.3705C238.337 18.8176 240.68 16.8143 243.681 15.368C246.675 13.9216 250.06 13.1984 253.835 13.1984C257.61 13.1984 260.893 13.9143 263.829 15.339C266.766 16.7637 269.036 18.7525 270.649 21.3126C272.262 23.8727 273.072 26.7583 273.072 29.991C273.072 30.9962 273.007 31.9364 272.884 32.8187H241.765C242.184 35.5017 243.717 37.6713 246.357 39.3275C248.997 40.9836 252.164 41.808 255.845 41.808C258.781 41.808 261.522 41.3018 264.083 40.2965C266.635 39.2913 268.588 37.9895 269.926 36.3985L274.135 39.9783C272.457 42.2419 269.926 44.0861 266.527 45.5108C263.135 46.9355 259.447 47.6514 255.462 47.6514C251.477 47.6514 247.738 46.8993 244.491 45.3878H244.498ZM265.717 27.6623C265.42 24.9358 264.169 22.8096 261.942 21.2837C259.722 19.7578 256.952 18.9912 253.647 18.9912C250.342 18.9912 247.811 19.8011 245.569 21.4139C243.327 23.0266 242.039 25.1094 241.7 27.6695H265.717V27.6623Z" fill="#00B265"/>
<path d="M280.926 45.0118C278.329 43.2905 277.028 40.9691 277.028 38.0329C277.028 35.0967 278.474 32.7536 281.367 30.866C284.26 28.9785 288.425 27.7852 293.878 27.2862L304.943 26.346C305.825 26.2593 306.505 26.0134 306.99 25.5939C307.474 25.1745 307.713 24.6321 307.713 23.9595C307.713 23.0772 307.264 22.2383 306.36 21.4428C305.456 20.6473 304.198 20.0181 302.585 19.5552C300.973 19.0924 299.179 18.861 297.212 18.861C293.987 18.861 290.978 19.5191 288.194 20.8425C285.409 22.166 283.486 23.7425 282.444 25.5867L277.664 22.3178C278.503 20.64 279.884 19.1141 281.815 17.7255C283.746 16.3442 286.06 15.245 288.758 14.4278C291.463 13.6106 294.298 13.2056 297.277 13.2056C300.546 13.2056 303.489 13.6756 306.107 14.623C308.725 15.5632 310.801 16.9373 312.334 18.738C313.86 20.5388 314.627 22.636 314.627 25.0226V46.3931H308.465L307.583 40.6075H307.518C306.049 42.7481 303.916 44.4404 301.103 45.6988C298.297 46.9571 295.086 47.5863 291.484 47.5863C287.044 47.5863 283.522 46.7257 280.926 45.0118ZM300.445 40.7666C302.643 39.906 304.372 38.7272 305.63 37.2157C306.888 35.7042 307.518 34.0336 307.518 32.1895V31.0613L294.818 32.1895C287.695 32.8187 284.129 34.5543 284.129 37.4037C284.129 38.8718 284.918 40.0145 286.487 40.8317C288.056 41.6489 290.269 42.0611 293.119 42.0611C295.802 42.0611 298.239 41.6344 300.445 40.7738V40.7666Z" fill="#00B265"/>
<path d="M352.407 17.0024C355.003 19.4974 356.305 22.9398 356.305 27.3441L356.239 46.3931H349.196V28.3493C349.196 25.4565 348.306 23.1712 346.527 21.5006C344.748 19.8228 342.325 18.9839 339.266 18.9839C335.498 18.9839 332.475 20.0109 330.212 22.0647C327.948 24.1186 326.82 26.9029 326.82 30.4249V46.3931H319.776V14.4567H325.938L326.82 20.3001H326.885C328.31 18.0365 330.277 16.3009 332.793 15.0859C335.31 13.8709 338.239 13.2634 341.595 13.2634C346.201 13.2634 349.81 14.5073 352.407 17.0024Z" fill="#00B265"/>
<path d="M157.165 54.6736H170.674C177.733 54.6736 182.643 58.832 182.643 64.6754C182.643 70.5189 177.689 74.6338 170.674 74.6338H160.947V87.6297H157.158V54.6664L157.165 54.6736ZM170.674 71.1336C175.397 71.1336 178.767 68.4722 178.767 64.6827C178.767 60.8931 175.447 58.1377 170.674 58.1377H160.947V71.1336H170.674Z" fill="#0E92DB"/>
<path d="M193.122 54.6737H197.794L210.508 87.637H206.393L203.399 79.7325H187.503L184.466 87.637H180.307L193.115 54.6737H193.122ZM202.242 76.2756L195.509 58.5066H195.415L188.631 76.2756H202.234H202.242Z" fill="#0E92DB"/>
<path d="M219.121 75.3861L207.246 54.6737H211.549L221.088 71.6471H221.132L230.439 54.6737H234.836L223.005 75.3861V87.637H219.121V75.3861Z" fill="#0E92DB"/>
<path d="M235.769 54.6737H239.79L248.346 83.8475H248.44L255.737 54.6737H261.768L269.109 83.8475H269.203L277.664 54.6737H281.685L272.052 87.637H266.303L258.825 58.4633H258.731L251.159 87.637H245.453L235.777 54.6737H235.769Z" fill="#0E92DB"/>
<path d="M292.251 54.6737H296.923L309.636 87.637H305.521L302.527 79.7325H286.632L283.594 87.637H279.436L292.244 54.6737H292.251ZM301.37 76.2756L294.637 58.5066H294.543L287.76 76.2756H301.363H301.37Z" fill="#0E92DB"/>
<path d="M318.25 75.3861L306.375 54.6737H310.678L320.217 71.6471H320.26L329.568 54.6737H333.965L322.133 75.3861V87.637H318.25V75.3861Z" fill="#0E92DB"/>
<path d="M333.495 77.2518L337.328 76.5503C337.653 81.6923 342 85.3372 347.756 85.3372C352.949 85.3372 356.124 82.5818 356.124 78.9803C356.124 76.0803 354.07 74.3518 349.253 73.2309L343.923 72.0159C338.08 70.6563 335.317 67.9949 335.317 63.5979C335.317 57.6605 339.758 53.5021 346.491 53.5021C352.522 53.5021 357.107 57.2916 358.04 62.8096L354.345 63.7425C353.874 59.7216 350.743 56.9662 346.534 56.9662C342.043 56.9662 339.194 59.5408 339.194 62.9543C339.194 65.7603 340.973 67.3513 345.131 68.2842L350.461 69.4992C356.818 70.9022 360 73.8962 360 78.38C360 84.4115 355.183 88.8085 347.749 88.8085C340.315 88.8085 334.24 84.0427 333.488 77.2591L333.495 77.2518Z" fill="#0E92DB"/>
</g>
<defs>
<clipPath id="clip0_56_5204">
<rect width="360" height="88.8013" fill="white"/>
</clipPath>
</defs>
</svg>
